<svg xmlns="http://www.w3.org/2000/svg" width="12" height="12" viewBox="0 0 12 12" fill="none">
    <path d="M6.20625 8.93907L8.56875 10.4391C8.87344 10.6313 9.24844 10.3453 9.15937 9.99376L8.475 7.30314C8.45649 7.22856 8.45944 7.15027 8.48349 7.07728C8.50754 7.0043 8.55172 6.9396 8.61094 6.89064L10.7297 5.12345C11.0062 4.89376 10.8656 4.4297 10.5047 4.40626L7.73906 4.22814C7.6636 4.22375 7.59105 4.19747 7.53028 4.15252C7.46951 4.10756 7.42316 4.04588 7.39687 3.97501L6.36562 1.37814C6.33833 1.30309 6.2886 1.23826 6.22319 1.19245C6.15778 1.14664 6.07985 1.12207 6 1.12207C5.92014 1.12207 5.84222 1.14664 5.77681 1.19245C5.7114 1.23826 5.66167 1.30309 5.63437 1.37814L4.60312 3.97501C4.57684 4.04588 4.53048 4.10756 4.46971 4.15252C4.40894 4.19747 4.3364 4.22375 4.26094 4.22814L1.49531 4.40626C1.13437 4.4297 0.993748 4.89376 1.27031 5.12345L3.38906 6.89064C3.44828 6.9396 3.49246 7.0043 3.51651 7.07728C3.54056 7.15027 3.5435 7.22856 3.525 7.30314L2.89219 9.79689C2.78437 10.2188 3.23437 10.5609 3.59531 10.3313L5.79375 8.93907C5.8554 8.89987 5.92694 8.87905 6 8.87905C6.07306 8.87905 6.1446 8.89987 6.20625 8.93907Z" fill="currentColor"></path>
</svg>